{
	"asset":{
		"generator":"Khronos glTF Blender I/O v4.1.63",
		"version":"2.0"
	},
	"scene":0,
	"scenes":[
		{
			"name":"Scene",
			"nodes":[
				0
			]
		}
	],
	"nodes":[
		{
			"mesh":0,
			"name":"Cylinder",
			"scale":[
				1.6640160083770752,
				1.6640160083770752,
				1.6640160083770752
			],
			"translation":[
				0,
				1.6866861581802368,
				0
			]
		}
	],
	"materials":[
		{
			"doubleSided":true,
			"name":"Material.001",
			"pbrMetallicRoughness":{
				"baseColorFactor":[
					0.4970591068267822,
					0.6026045083999634,
					0.8000000715255737,
					1
				],
				"metallicFactor":0.07608695328235626,
				"roughnessFactor":0.25
			}
		}
	],
	"meshes":[
		{
			"name":"Cylinder",
			"primitives":[
				{
					"attributes":{
						"POSITION":0,
						"NORMAL":1,
						"TEXCOORD_0":2
					},
					"indices":3,
					"material":0
				}
			]
		}
	],
	"accessors":[
		{
			"bufferView":0,
			"componentType":5126,
			"count":1348,
			"max":[
				1.780562162399292,
				1.0546033382415771,
				1
			],
			"min":[
				-1,
				-1,
				-1
			],
			"type":"VEC3"
		},
		{
			"bufferView":1,
			"componentType":5126,
			"count":1348,
			"type":"VEC3"
		},
		{
			"bufferView":2,
			"componentType":5126,
			"count":1348,
			"type":"VEC2"
		},
		{
			"bufferView":3,
			"componentType":5123,
			"count":7140,
			"type":"SCALAR"
		}
	],
	"bufferViews":[
		{
			"buffer":0,
			"byteLength":16176,
			"byteOffset":0,
			"target":34962
		},
		{
			"buffer":0,
			"byteLength":16176,
			"byteOffset":16176,
			"target":34962
		},
		{
			"buffer":0,
			"byteLength":10784,
			"byteOffset":32352,
			"target":34962
		},
		{
			"buffer":0,
			"byteLength":14280,
			"byteOffset":43136,
			"target":34963
		}
	],
	"buffers":[
		{
			"byteLength":57416,
			"uri":"mug.bin"
		}
	]
}
