<?xml version="1.0" encoding="UTF-8"?>
<!DOCTYPE svg PUBLIC "-//W3C//DTD SVG 1.1//EN" "http://www.w3.org/Graphics/SVG/1.1/DTD/svg11.dtd">
<!-- Creator: CorelDRAW -->
<svg xmlns="http://www.w3.org/2000/svg" xml:space="preserve" width="350mm" height="100mm" version="1.1" style="shape-rendering:geometricPrecision; text-rendering:geometricPrecision; image-rendering:optimizeQuality; fill-rule:evenodd; clip-rule:evenodd"
viewBox="0 0 35000 10000"
 xmlns:xlink="http://www.w3.org/1999/xlink"
 xmlns:xodm="http://www.corel.com/coreldraw/odm/2003">
 <defs>
  <style type="text/css">
   <![CDATA[
    .fil0 {fill:#FEFEFE;fill-rule:nonzero}
   ]]>
  </style>
 </defs>
 <g id="Слой_x0020_1">
  <metadata id="CorelCorpID_0Corel-Layer"/>
  <path class="fil0" d="M1207.78 795.13l8326.63 0 0 8476.63 -8476.63 0 0 -8476.63 150 0zm8026.63 300l-7876.63 0 0 7876.63 7876.63 0 0 -7876.63z"/>
  <path class="fil0" d="M3283.21 7990.04l-669.1 0 0 -5461.56 1513.84 0c225.82,0 433.52,13.94 625.9,40.43 192.36,27.88 368,69.7 528.31,126.85 326.18,117.1 574.31,292.73 742.97,525.53 168.68,232.78 252.31,519.94 252.31,860.07 0,277.4 -54.36,522.74 -164.48,733.22 -110.13,211.89 -270.43,387.53 -479.53,529.71 -209.09,142.18 -462.79,248.13 -763.89,320.62 -299.7,72.48 -639.83,108.72 -1020.38,108.72 -181.21,0 -370.8,-8.36 -565.95,-25.09l0 2241.5zm0 -2850.66c89.21,9.76 184,18.12 281.58,23.7 97.57,5.57 189.58,8.36 277.4,8.36 312.25,0 578.5,-25.09 798.74,-73.88 220.24,-48.79 400.07,-119.88 538.07,-213.27 139.4,-94.8 239.76,-209.1 302.49,-342.92 62.73,-135.22 93.39,-288.55 93.39,-460.01 0,-211.88 -51.57,-386.13 -153.33,-522.74 -101.76,-135.21 -246.73,-238.37 -433.52,-309.45 -117.09,-43.22 -252.31,-73.89 -404.25,-92 -151.94,-18.13 -328.98,-26.49 -529.7,-26.49l-770.87 0 0 2008.7zm4059.22 2850.66l0 -5913.19 635.65 0 0 5913.19 -635.65 0z"/>
  <path class="fil0" d="M10520.06 6638.53l0 -3204.91 1210.05 0c212.62,0 375.25,10.45 487.9,30.59 157.41,26.11 289.45,76.09 396.13,149.2 106.69,73.86 192.48,176.81 257.38,308.86 64.91,132.04 96.99,277.52 96.99,436.42 0,271.55 -86.54,502.07 -260.37,690.07 -173.07,188.74 -487.15,282.74 -940.73,282.74l-822.12 0 0 1307.03 -425.23 0zm425.23 -1683.02l828.09 0c274.53,0 468.5,-50.73 584.13,-152.94 114.89,-102.2 172.33,-245.44 172.33,-431.2 0,-133.54 -33.57,-248.43 -101.45,-343.92 -67.89,-95.49 -157.42,-158.9 -267.83,-189.49 -71.61,-18.65 -203.66,-28.34 -395.39,-28.34l-819.88 0 0 1145.89zm2578.26 1683.02l0 -3204.91 425.23 0 0 1320.46 1656.17 0 0 -1320.46 425.23 0 0 3204.91 -425.23 0 0 -1508.46 -1656.17 0 0 1508.46 -425.23 0zm3084.79 -1559.93c0,-531.17 143.24,-947.45 428.97,-1248.1 285.72,-300.64 654.26,-450.59 1106.35,-450.59 296.17,0 562.5,70.87 800.48,211.87 237.23,141 418.52,337.95 543.1,590.85 124.59,252.15 187.25,538.62 187.25,858.67 0,324.52 -65.65,615.47 -196.95,871.35 -131.3,256.63 -317.06,450.6 -557.27,581.9 -240.97,132.04 -500.59,197.69 -778.85,197.69 -302.14,0 -571.45,-73.11 -809.43,-218.58 -237.24,-145.48 -417.78,-343.92 -540.12,-596.07 -122.35,-251.41 -183.53,-517.74 -183.53,-798.99zm438.66 7.46c0,385.69 103.7,689.32 311.1,910.89 207.39,221.57 467.75,332.73 781.08,332.73 319.3,0 581.15,-111.91 787.8,-335.71 205.9,-223.81 308.85,-541.61 308.85,-953.42 0,-260.36 -44.01,-487.9 -132.04,-681.86 -88.03,-193.97 -217.1,-344.66 -386.44,-451.35 -170.1,-106.68 -360.33,-160.39 -571.46,-160.39 -299.9,0 -558.02,102.95 -774.37,308.85 -216.34,205.9 -324.52,549.07 -324.52,1030.26zm3987.49 1552.47l0 -2828.91 -1056.37 0 0 -376 2537.97 0 0 376 -1056.37 0 0 2828.91 -425.23 0zm1709.13 -1559.93c0,-531.17 143.24,-947.45 428.97,-1248.1 285.72,-300.64 654.26,-450.59 1106.35,-450.59 296.17,0 562.5,70.87 800.48,211.87 237.23,141 418.52,337.95 543.1,590.85 124.59,252.15 187.25,538.62 187.25,858.67 0,324.52 -65.65,615.47 -196.95,871.35 -131.3,256.63 -317.06,450.6 -557.27,581.9 -240.97,132.04 -500.59,197.69 -778.85,197.69 -302.14,0 -571.45,-73.11 -809.43,-218.58 -237.24,-145.48 -417.78,-343.92 -540.12,-596.07 -122.35,-251.41 -183.53,-517.74 -183.53,-798.99zm438.66 7.46c0,385.69 103.7,689.32 311.1,910.89 207.39,221.57 467.75,332.73 781.08,332.73 319.3,0 581.15,-111.91 787.8,-335.71 205.9,-223.81 308.85,-541.61 308.85,-953.42 0,-260.36 -44.01,-487.9 -132.04,-681.86 -88.03,-193.97 -217.1,-344.66 -386.44,-451.35 -170.1,-106.68 -360.33,-160.39 -571.46,-160.39 -299.9,0 -558.02,102.95 -774.37,308.85 -216.34,205.9 -324.52,549.07 -324.52,1030.26zm3154.93 1552.47l0 -3204.91 425.23 0 0 2828.92 1575.6 0 0 375.99 -2000.83 0zm2156 0l1229.44 -3204.91 466.26 0 1304.79 3204.91 -482.67 0 -370.77 -971.32 -1349.56 0 -347.64 971.32 -449.85 0zm922.08 -1315.98l1092.17 0 -334.21 -888.51c-100.72,-270.06 -176.81,-493.12 -229.78,-669.19 -44.01,208.89 -102.95,414.05 -176.81,616.96l-351.37 940.74zm2396.97 1315.98l0 -3204.91 1202.58 0c244.7,0 440.9,32.08 589.36,96.98 147.71,64.91 263.35,164.87 346.9,299.9 84.3,134.29 126.08,275.29 126.08,423 0,136.52 -37.3,265.58 -111.16,386.44 -73.85,120.85 -185.76,218.58 -335.71,293.18 193.97,56.7 343.17,153.68 446.87,290.95 104.44,136.52 156.66,298.41 156.66,484.92 0,150.69 -32.08,290.2 -95.49,419.26 -63.41,129.06 -141.74,228.28 -234.99,298.41 -93.26,69.38 -210.38,122.35 -350.63,158.16 -141,35.81 -313.33,53.71 -517.74,53.71l-1222.73 0zm425.23 -1857.59l693.05 0c188,0 323.03,-12.69 404.35,-37.31 108.17,-32.07 189.49,-85.79 243.95,-160.39 54.46,-74.6 82.06,-167.85 82.06,-280.5 0,-106.68 -25.37,-200.68 -76.84,-281.25 -50.73,-81.32 -123.84,-137.27 -218.59,-167.11 -94.74,-29.84 -257.37,-44.76 -487.15,-44.76l-640.83 0 0 971.32zm0 1481.6l798.24 0c137.27,0 233.51,-5.23 289.46,-15.67 96.98,-17.16 179.04,-46.25 244.69,-87.29 65.65,-41.03 119.37,-100.71 161.89,-179.04 42.52,-78.33 63.41,-168.6 63.41,-270.81 0,-120.11 -30.58,-223.8 -92.5,-312.58 -61.18,-88.78 -146.22,-150.7 -255.14,-186.51 -108.18,-35.8 -264.84,-53.71 -468.5,-53.71l-741.55 0 0 1105.61z"/>
 </g>
</svg>
