<svg width="420" height="131" viewBox="0 0 420 131" fill="none" xmlns="http://www.w3.org/2000/svg">
<g clip-path="url(#clip0_48_25)">
<path d="M109.962 15.327H30.375V86.9185H109.962V15.327Z" stroke="black" stroke-width="4" stroke-miterlimit="10"/>
<path d="M52.9185 68H48.0635V28.1475H59.1138C60.7619 28.1475 62.2809 28.2467 63.6709 28.4453C65.0807 28.6439 66.3714 28.9517 67.543 29.3687C69.9258 30.2225 71.7327 31.5033 72.9639 33.2109C74.195 34.8988 74.8105 36.9837 74.8105 39.4658C74.8105 41.4912 74.4035 43.2783 73.5894 44.8271C72.7951 46.3561 71.6335 47.6369 70.1045 48.6694C68.5755 49.702 66.709 50.4863 64.5049 51.0225C62.3206 51.5387 59.8385 51.7969 57.0586 51.7969C55.7282 51.7969 54.3481 51.7373 52.9185 51.6182V68ZM52.9185 47.1802C53.5737 47.2596 54.2588 47.3192 54.9736 47.3589C55.6885 47.3986 56.3636 47.4185 56.999 47.4185C59.2826 47.4185 61.2285 47.2397 62.8369 46.8823C64.4453 46.5249 65.7559 46.0086 66.7686 45.3335C67.7812 44.6385 68.516 43.8045 68.9727 42.8315C69.4294 41.8387 69.6577 40.7168 69.6577 39.4658C69.6577 37.917 69.2804 36.6462 68.5259 35.6533C67.7912 34.6605 66.7388 33.9059 65.3687 33.3896C64.5148 33.0719 63.5319 32.8535 62.4199 32.7344C61.3079 32.5954 60.0173 32.5259 58.5479 32.5259H52.9185V47.1802ZM84.3847 68V24.8711H89.0014V68H84.3847Z" fill="black"/>
</g>
<path d="M126.918 76.3081H122.063V36.4556H133.114C134.762 36.4556 136.281 36.5549 137.671 36.7534C139.081 36.952 140.371 37.2598 141.543 37.6768C143.926 38.5306 145.733 39.8114 146.964 41.519C148.195 43.2069 148.811 45.2918 148.811 47.7739C148.811 49.7993 148.403 51.5864 147.589 53.1353C146.795 54.6642 145.633 55.945 144.104 56.9775C142.576 58.0101 140.709 58.7944 138.505 59.3306C136.321 59.8468 133.839 60.105 131.059 60.105C129.728 60.105 128.348 60.0454 126.918 59.9263V76.3081ZM126.918 55.4883C127.574 55.5677 128.259 55.6273 128.974 55.667C129.688 55.7067 130.364 55.7266 130.999 55.7266C133.283 55.7266 135.229 55.5479 136.837 55.1904C138.445 54.833 139.756 54.3167 140.769 53.6416C141.781 52.9466 142.516 52.1126 142.973 51.1396C143.429 50.1468 143.658 49.0249 143.658 47.7739C143.658 46.2251 143.28 44.9543 142.526 43.9614C141.791 42.9686 140.739 42.214 139.369 41.6978C138.515 41.38 137.532 41.1616 136.42 41.0425C135.308 40.9035 134.017 40.834 132.548 40.834H126.918V55.4883ZM161.708 53.7012H182.587V36.4556H187.442V76.3081H182.587V58.0796H161.708V76.3081H156.853V36.4556H161.708V53.7012ZM228.396 56.4116C228.396 53.731 228.049 51.368 227.354 49.3228C226.659 47.2775 225.696 45.5698 224.465 44.1997C223.254 42.8296 221.814 41.797 220.146 41.1021C218.498 40.3872 216.721 40.0298 214.814 40.0298C212.908 40.0298 211.121 40.3872 209.453 41.1021C207.805 41.797 206.365 42.8296 205.134 44.1997C203.923 45.5698 202.97 47.2775 202.275 49.3228C201.58 51.368 201.232 53.731 201.232 56.4116C201.232 59.0923 201.58 61.4552 202.275 63.5005C202.99 65.5259 203.953 67.2236 205.164 68.5938C206.395 69.9639 207.835 70.9964 209.483 71.6914C211.151 72.3864 212.948 72.7339 214.874 72.7339C216.78 72.7339 218.548 72.3864 220.176 71.6914C221.824 70.9964 223.254 69.9639 224.465 68.5938C225.696 67.2236 226.659 65.5259 227.354 63.5005C228.049 61.4552 228.396 59.0923 228.396 56.4116ZM233.52 56.4116C233.52 59.4299 233.083 62.1999 232.209 64.7217C231.335 67.2435 230.084 69.4178 228.456 71.2446C226.828 73.0715 224.862 74.5011 222.559 75.5337C220.275 76.5464 217.714 77.0527 214.874 77.0527C211.935 77.0527 209.304 76.5464 206.981 75.5337C204.658 74.5011 202.692 73.0715 201.083 71.2446C199.475 69.4178 198.244 67.2435 197.39 64.7217C196.536 62.1999 196.109 59.4299 196.109 56.4116C196.109 53.3735 196.546 50.5936 197.42 48.0718C198.313 45.5301 199.564 43.3459 201.173 41.519C202.801 39.6922 204.767 38.2725 207.07 37.2598C209.374 36.2272 211.955 35.7109 214.814 35.7109C217.733 35.7109 220.345 36.2272 222.648 37.2598C224.971 38.2725 226.937 39.6922 228.545 41.519C230.154 43.3459 231.385 45.5301 232.239 48.0718C233.093 50.5936 233.52 53.3735 233.52 56.4116ZM254.965 76.3081H250.11V40.834H236.796V36.4556H268.279V40.834H254.965V76.3081ZM303.872 56.4116C303.872 53.731 303.525 51.368 302.83 49.3228C302.135 47.2775 301.172 45.5698 299.94 44.1997C298.729 42.8296 297.29 41.797 295.622 41.1021C293.973 40.3872 292.196 40.0298 290.29 40.0298C288.384 40.0298 286.597 40.3872 284.929 41.1021C283.281 41.797 281.841 42.8296 280.61 44.1997C279.399 45.5698 278.445 47.2775 277.75 49.3228C277.056 51.368 276.708 53.731 276.708 56.4116C276.708 59.0923 277.056 61.4552 277.75 63.5005C278.465 65.5259 279.428 67.2236 280.64 68.5938C281.871 69.9639 283.31 70.9964 284.958 71.6914C286.626 72.3864 288.424 72.7339 290.35 72.7339C292.256 72.7339 294.023 72.3864 295.651 71.6914C297.299 70.9964 298.729 69.9639 299.94 68.5938C301.172 67.2236 302.135 65.5259 302.83 63.5005C303.525 61.4552 303.872 59.0923 303.872 56.4116ZM308.995 56.4116C308.995 59.4299 308.558 62.1999 307.685 64.7217C306.811 67.2435 305.56 69.4178 303.932 71.2446C302.303 73.0715 300.338 74.5011 298.034 75.5337C295.751 76.5464 293.189 77.0527 290.35 77.0527C287.411 77.0527 284.78 76.5464 282.457 75.5337C280.133 74.5011 278.167 73.0715 276.559 71.2446C274.951 69.4178 273.72 67.2435 272.866 64.7217C272.012 62.1999 271.585 59.4299 271.585 56.4116C271.585 53.3735 272.022 50.5936 272.896 48.0718C273.789 45.5301 275.04 43.3459 276.648 41.519C278.277 39.6922 280.243 38.2725 282.546 37.2598C284.849 36.2272 287.431 35.7109 290.29 35.7109C293.209 35.7109 295.82 36.2272 298.124 37.2598C300.447 38.2725 302.413 39.6922 304.021 41.519C305.629 43.3459 306.861 45.5301 307.714 48.0718C308.568 50.5936 308.995 53.3735 308.995 56.4116ZM322.488 36.4556V71.9297H341.938V76.3081H317.633V36.4556H322.488ZM345.363 76.3081L361.596 36.4556H365.795L382.028 76.3081H376.756L371.991 64.3047H355.341L350.575 76.3081H345.363ZM363.651 42.6509C361.884 47.6151 360.186 52.1226 358.558 56.1733L357.068 59.9263H370.263L368.774 56.1733C367.146 52.0431 365.478 47.5356 363.77 42.6509H363.651ZM407.822 55.6968C409.053 55.8755 410.155 56.2031 411.128 56.6797C412.121 57.1562 412.965 57.7718 413.66 58.5264C414.375 59.2611 414.921 60.1447 415.298 61.1772C415.676 62.1899 415.864 63.3516 415.864 64.6621C415.864 65.5954 415.725 66.5783 415.447 67.6108C415.169 68.6235 414.703 69.6164 414.047 70.5894C413.412 71.5425 412.568 72.4261 411.516 73.2402C410.483 74.0544 409.192 74.7196 407.644 75.2358C406.452 75.633 405.132 75.911 403.682 76.0698C402.233 76.2287 400.495 76.3081 398.47 76.3081H388.164V36.4556H398.112C399.026 36.4556 399.85 36.4754 400.584 36.5151C401.339 36.535 402.024 36.5747 402.64 36.6343C403.275 36.6938 403.861 36.7733 404.397 36.8726C404.933 36.952 405.439 37.0513 405.916 37.1704C407.167 37.508 408.299 37.9746 409.312 38.5703C410.344 39.1462 411.218 39.8411 411.933 40.6553C412.647 41.4694 413.194 42.3927 413.571 43.4253C413.968 44.4578 414.167 45.5798 414.167 46.791C414.167 47.764 414.047 48.6973 413.809 49.5908C413.591 50.4844 413.223 51.3084 412.707 52.063C412.211 52.8175 411.555 53.4927 410.741 54.0884C409.947 54.6841 408.974 55.1805 407.822 55.5776V55.6968ZM400.406 53.7012C401.359 53.7012 402.183 53.6615 402.878 53.582C403.573 53.4827 404.198 53.3438 404.754 53.165C406.244 52.6686 407.326 51.8942 408.001 50.8418C408.696 49.7894 409.043 48.5483 409.043 47.1187C409.043 45.6493 408.686 44.4479 407.971 43.5146C407.256 42.5814 406.134 41.8864 404.605 41.4297C403.851 41.2113 402.977 41.0623 401.984 40.9829C400.992 40.8836 399.82 40.834 398.47 40.834H393.019V53.7012H400.406ZM393.019 58.0796V71.9297H398.887C400.277 71.9297 401.567 71.8701 402.759 71.751C403.95 71.612 404.963 71.4035 405.797 71.1255C406.71 70.8276 407.485 70.4504 408.12 69.9937C408.756 69.5171 409.262 69.0008 409.639 68.4448C410.036 67.869 410.314 67.2633 410.473 66.6279C410.652 65.9925 410.741 65.3472 410.741 64.6919C410.741 63.9373 410.652 63.2324 410.473 62.5771C410.294 61.902 409.997 61.3063 409.58 60.79C409.182 60.2539 408.646 59.7873 407.971 59.3901C407.316 58.993 406.492 58.6852 405.499 58.4668C404.903 58.3278 404.218 58.2285 403.444 58.1689C402.689 58.1094 401.746 58.0796 400.614 58.0796H393.019Z" fill="black"/>
<defs>
<clipPath id="clip0_48_25">
<rect width="135" height="131" fill="white"/>
</clipPath>
</defs>
</svg>
